<svg xmlns="http://www.w3.org/2000/svg" viewBox="0 0 64 64" width="64" height="64">
  <defs>
    <filter id="crayon"><feTurbulence type="fractalNoise" baseFrequency="0.09" numOctaves="2" seed="4" result="n"></feTurbulence><feDisplacementMap in="SourceGraphic" in2="n" scale="1.9" xChannelSelector="R" yChannelSelector="G"></feDisplacementMap></filter>
    <filter id="grain"><feTurbulence type="fractalNoise" baseFrequency="0.9" numOctaves="4" stitchTiles="stitch"></feTurbulence><feColorMatrix type="saturate" values="0"></feColorMatrix></filter>
    <clipPath id="blobClip"><path d="M33 4C48 4 60 16 60 32C60 48 46 60 31 60C15 60 4 48 4 31C4 15 18 4 33 4Z"></path></clipPath>
  </defs>
  <g filter="url(#crayon)">
    <path d="M33 4C48 4 60 16 60 32C60 48 46 60 31 60C15 60 4 48 4 31C4 15 18 4 33 4Z" fill="#F4B49B"></path>
    <g clip-path="url(#blobClip)"><rect width="64" height="64" filter="url(#grain)" opacity="0.4" style="mix-blend-mode:multiply"></rect></g>
    <circle cx="23" cy="27" r="2.8" fill="#5A4636"></circle>
    <circle cx="41" cy="27" r="2.8" fill="#5A4636"></circle>
    <path d="M23 37q9 8 18 0" fill="none" stroke="#5A4636" stroke-width="3" stroke-linecap="round"></path>
  </g>
</svg>